<?xml version="1.0" encoding="UTF-8" standalone="no"?>
<!DOCTYPE svg PUBLIC "-//W3C//DTD SVG 1.1//EN"
 "http://www.w3.org/Graphics/SVG/1.1/DTD/svg11.dtd">
<!-- Generated by graphviz version 14.0.1 (20251006.0113)
 -->
<!-- Title: StateTransitions Pages: 1 -->
<svg width="933pt" height="349pt"
 viewBox="0.00 0.00 933.00 349.00" xmlns="http://www.w3.org/2000/svg" xmlns:xlink="http://www.w3.org/1999/xlink">
<g id="graph0" class="graph" transform="scale(1 1) rotate(0) translate(4 344.62)">
<title>StateTransitions</title>
<polygon fill="white" stroke="none" points="-4,4 -4,-344.62 929.17,-344.62 929.17,4 -4,4"/>
<!-- 1 -->
<g id="node1" class="node">
<title>1</title>
<g id="a_node1"><a xlink:title="pullOutStick">
<ellipse fill="#ff66b2" stroke="black" cx="28.8" cy="-134.82" rx="28.8" ry="28.8"/>
<text xml:space="preserve" text-anchor="middle" x="28.8" y="-128.99" font-family="Times New Roman,serif" font-size="16.00">1</text>
</a>
</g>
</g>
<!-- 2 -->
<g id="node2" class="node">
<title>2</title>
<g id="a_node2"><a xlink:title="diagonalToBox">
<ellipse fill="#669eff" stroke="black" cx="114.05" cy="-134.59" rx="28.8" ry="28.8"/>
<text xml:space="preserve" text-anchor="middle" x="114.05" y="-128.77" font-family="Times New Roman,serif" font-size="16.00">2</text>
</a>
</g>
</g>
<!-- 1&#45;&gt;2 -->
<g id="edge1" class="edge">
<title>1&#45;&gt;2</title>
<path fill="none" stroke="#666666" stroke-width="6" d="M57.71,-133.48C60.92,-133.46 64.49,-133.49 68.76,-133.55"/>
<polygon fill="#666666" stroke="#666666" stroke-width="6" points="68.52,-138.79 78.62,-133.74 68.72,-128.29 68.52,-138.79"/>
<text xml:space="preserve" text-anchor="middle" x="68.71" y="-122.15" font-family="Times New Roman,serif" font-size="12.00"> 1.00 </text>
</g>
<!-- 3 -->
<g id="node3" class="node">
<title>3</title>
<g id="a_node3"><a xlink:title="toss">
<ellipse fill="#9933ff" stroke="black" cx="238.27" cy="-133.86" rx="28.8" ry="28.8"/>
<text xml:space="preserve" text-anchor="middle" x="238.27" y="-128.03" font-family="Times New Roman,serif" font-size="16.00">3</text>
</a>
</g>
</g>
<!-- 2&#45;&gt;3 -->
<g id="edge2" class="edge">
<title>2&#45;&gt;3</title>
<path fill="none" stroke="#666666" stroke-width="6" d="M143.24,-132.1C155.19,-131.48 167.83,-131.58 192.85,-132.34"/>
<polygon fill="#666666" stroke="#666666" stroke-width="6" points="192.5,-137.58 202.66,-132.65 192.84,-127.08 192.5,-137.58"/>
<text xml:space="preserve" text-anchor="middle" x="162.27" y="-134.73" font-family="Times New Roman,serif" font-size="12.00"> 0.99 </text>
</g>
<!-- 3&#45;&gt;3 -->
<g id="edge3" class="edge">
<title>3&#45;&gt;3</title>
<path fill="none" stroke="#666666" stroke-width="2.7" d="M266.6,-140.6C276.78,-140.74 285.07,-138.5 285.07,-133.86 285.07,-131.68 283.25,-130.03 280.26,-128.91"/>
<polygon fill="#666666" stroke="#666666" stroke-width="2.7" points="281.02,-125.48 270.65,-127.64 280.11,-132.42 281.02,-125.48"/>
<text xml:space="preserve" text-anchor="middle" x="298.57" y="-129.58" font-family="Times New Roman,serif" font-size="12.00"> 0.34 </text>
</g>
<!-- 4 -->
<g id="node4" class="node">
<title>4</title>
<g id="a_node4"><a xlink:title="swoopLeftToCorner">
<ellipse fill="#ff3333" stroke="black" cx="317.82" cy="-121.91" rx="28.8" ry="28.8"/>
<text xml:space="preserve" text-anchor="middle" x="317.82" y="-116.09" font-family="Times New Roman,serif" font-size="16.00" fill="white">4</text>
</a>
</g>
</g>
<!-- 3&#45;&gt;4 -->
<g id="edge4" class="edge">
<title>3&#45;&gt;4</title>
<path fill="none" stroke="#666666" stroke-width="2.3" d="M265.91,-124.9C268.67,-124.47 271.72,-124.13 275.28,-123.83"/>
<polygon fill="#666666" stroke="#666666" stroke-width="2.3" points="275.43,-127.33 285.2,-123.22 275.01,-120.34 275.43,-127.33"/>
<text xml:space="preserve" text-anchor="middle" x="275.2" y="-112.44" font-family="Times New Roman,serif" font-size="12.00"> 0.27 </text>
</g>
<!-- 15 -->
<g id="node15" class="node">
<title>15</title>
<g id="a_node15"><a xlink:title="nodding">
<ellipse fill="#0707d7" stroke="black" cx="195.18" cy="-204.55" rx="28.8" ry="28.8"/>
<text xml:space="preserve" text-anchor="middle" x="195.18" y="-198.72" font-family="Times New Roman,serif" font-size="16.00" fill="white">15</text>
</a>
</g>
</g>
<!-- 3&#45;&gt;15 -->
<g id="edge5" class="edge">
<title>3&#45;&gt;15</title>
<path fill="none" stroke="#666666" stroke-width="2.8" d="M217.2,-153.75C213.3,-157.66 210.23,-161 207.77,-164.16"/>
<polygon fill="#666666" stroke="#666666" stroke-width="2.8" points="204.94,-162.06 202.98,-172.47 211.01,-165.55 204.94,-162.06"/>
<text xml:space="preserve" text-anchor="middle" x="194.5" y="-152.46" font-family="Times New Roman,serif" font-size="12.00"> 0.37 </text>
</g>
<!-- 5 -->
<g id="node5" class="node">
<title>5</title>
<g id="a_node5"><a xlink:title="reachToWall">
<ellipse fill="#66ff66" stroke="black" cx="300.19" cy="-311.82" rx="28.8" ry="28.8"/>
<text xml:space="preserve" text-anchor="middle" x="300.19" y="-305.99" font-family="Times New Roman,serif" font-size="16.00">5</text>
</a>
</g>
</g>
<!-- 4&#45;&gt;5 -->
<g id="edge6" class="edge">
<title>4&#45;&gt;5</title>
<path fill="none" stroke="#666666" stroke-width="1.8" d="M306.72,-148.74C280.34,-213.1 276.17,-230.9 287.69,-272.25"/>
<polygon fill="#666666" stroke="#666666" stroke-width="1.8" points="284.28,-273.06 290.48,-281.66 291,-271.08 284.28,-273.06"/>
<text xml:space="preserve" text-anchor="middle" x="269.49" y="-222" font-family="Times New Roman,serif" font-size="12.00"> 0.16 </text>
</g>
<!-- 14 -->
<g id="node14" class="node">
<title>14</title>
<g id="a_node14"><a xlink:title="curvedRight">
<ellipse fill="#0080ff" stroke="black" cx="222.07" cy="-283.17" rx="28.8" ry="28.8"/>
<text xml:space="preserve" text-anchor="middle" x="222.07" y="-277.34" font-family="Times New Roman,serif" font-size="16.00">14</text>
</a>
</g>
</g>
<!-- 4&#45;&gt;14 -->
<g id="edge7" class="edge">
<title>4&#45;&gt;14</title>
<path fill="none" stroke="#666666" stroke-width="2.2" d="M297.79,-142.66C249.56,-192.84 236.76,-208.87 229.21,-241.57"/>
<polygon fill="#666666" stroke="#666666" stroke-width="2.2" points="225.81,-240.7 227.26,-251.19 232.67,-242.08 225.81,-240.7"/>
<text xml:space="preserve" text-anchor="middle" x="261.73" y="-201.54" font-family="Times New Roman,serif" font-size="12.00"> 0.24 </text>
</g>
<!-- 4&#45;&gt;15 -->
<g id="edge8" class="edge">
<title>4&#45;&gt;15</title>
<path fill="none" stroke="#666666" stroke-width="3.6" d="M291.1,-133.76C253.29,-150.66 236.57,-159.08 223.51,-170.75"/>
<polygon fill="#666666" stroke="#666666" stroke-width="3.6" points="221.26,-168.05 216.82,-177.67 226.29,-172.92 221.26,-168.05"/>
<text xml:space="preserve" text-anchor="middle" x="261.46" y="-157.1" font-family="Times New Roman,serif" font-size="12.00"> 0.53 </text>
</g>
<!-- 6 -->
<g id="node6" class="node">
<title>6</title>
<g id="a_node6"><a xlink:title="right">
<ellipse fill="#ff9966" stroke="black" cx="371.53" cy="-268.92" rx="28.8" ry="28.8"/>
<text xml:space="preserve" text-anchor="middle" x="371.53" y="-263.1" font-family="Times New Roman,serif" font-size="16.00">6</text>
</a>
</g>
</g>
<!-- 5&#45;&gt;6 -->
<g id="edge9" class="edge">
<title>5&#45;&gt;6</title>
<path fill="none" stroke="#666666" stroke-width="5.9" d="M326.84,-300.29C329.22,-298.89 331.78,-297.27 334.69,-295.32"/>
<polygon fill="#666666" stroke="#666666" stroke-width="5.9" points="337.59,-299.6 342.83,-289.64 331.67,-291.13 337.59,-299.6"/>
<text xml:space="preserve" text-anchor="middle" x="348.16" y="-298.19" font-family="Times New Roman,serif" font-size="12.00"> 0.99 </text>
</g>
<!-- 6&#45;&gt;6 -->
<g id="edge10" class="edge">
<title>6&#45;&gt;6</title>
<path fill="none" stroke="#666666" stroke-width="1.8" d="M399.86,-275.66C410.04,-275.81 418.33,-273.56 418.33,-268.92 418.33,-266.46 415.99,-264.67 412.27,-263.55"/>
<polygon fill="#666666" stroke="#666666" stroke-width="1.8" points="412.9,-260.1 402.57,-262.48 412.13,-267.06 412.9,-260.1"/>
<text xml:space="preserve" text-anchor="middle" x="431.83" y="-264.65" font-family="Times New Roman,serif" font-size="12.00"> 0.16 </text>
</g>
<!-- 7 -->
<g id="node7" class="node">
<title>7</title>
<g id="a_node7"><a xlink:title="pullOutPellet">
<ellipse fill="#009900" stroke="black" cx="381.64" cy="-187.59" rx="28.8" ry="28.8"/>
<text xml:space="preserve" text-anchor="middle" x="381.64" y="-181.76" font-family="Times New Roman,serif" font-size="16.00" fill="white">7</text>
</a>
</g>
</g>
<!-- 6&#45;&gt;7 -->
<g id="edge11" class="edge">
<title>6&#45;&gt;7</title>
<path fill="none" stroke="#666666" stroke-width="4.6" d="M367.17,-240.24C367.33,-237.25 367.77,-234.11 368.53,-230.53"/>
<polygon fill="#666666" stroke="#666666" stroke-width="4.6" points="372.38,-231.7 371.1,-221 364.61,-229.6 372.38,-231.7"/>
<text xml:space="preserve" text-anchor="middle" x="355.02" y="-219.17" font-family="Times New Roman,serif" font-size="12.00"> 0.73 </text>
</g>
<!-- 7&#45;&gt;7 -->
<g id="edge12" class="edge">
<title>7&#45;&gt;7</title>
<path fill="none" stroke="#666666" stroke-width="2.4" d="M409.97,-194.33C420.14,-194.48 428.44,-192.23 428.44,-187.59 428.44,-185.34 426.49,-183.66 423.33,-182.53"/>
<polygon fill="#666666" stroke="#666666" stroke-width="2.4" points="423.93,-179.08 413.57,-181.3 423.06,-186.02 423.93,-179.08"/>
<text xml:space="preserve" text-anchor="middle" x="441.94" y="-183.31" font-family="Times New Roman,serif" font-size="12.00"> 0.27 </text>
</g>
<!-- 8 -->
<g id="node8" class="node">
<title>8</title>
<g id="a_node8"><a xlink:title="swoopOut">
<ellipse fill="#000080" stroke="black" cx="447.28" cy="-165.55" rx="28.8" ry="28.8"/>
<text xml:space="preserve" text-anchor="middle" x="447.28" y="-159.73" font-family="Times New Roman,serif" font-size="16.00" fill="white">8</text>
</a>
</g>
</g>
<!-- 7&#45;&gt;8 -->
<g id="edge13" class="edge">
<title>7&#45;&gt;8</title>
<path fill="none" stroke="#666666" stroke-width="4.6" d="M408.94,-177.53C409.04,-177.5 409.13,-177.47 409.22,-177.44"/>
<polygon fill="#666666" stroke="#666666" stroke-width="4.6" points="405.34,-182.9 413.65,-176.03 402.9,-175.23 405.34,-182.9"/>
<text xml:space="preserve" text-anchor="middle" x="402.44" y="-166.05" font-family="Times New Roman,serif" font-size="12.00"> 0.73 </text>
</g>
<!-- 9 -->
<g id="node9" class="node">
<title>9</title>
<g id="a_node9"><a xlink:title="stickToDisp">
<ellipse fill="#ffff00" stroke="black" cx="526.89" cy="-137.36" rx="28.8" ry="28.8"/>
<text xml:space="preserve" text-anchor="middle" x="526.89" y="-131.54" font-family="Times New Roman,serif" font-size="16.00">9</text>
</a>
</g>
</g>
<!-- 8&#45;&gt;9 -->
<g id="edge14" class="edge">
<title>8&#45;&gt;9</title>
<path fill="none" stroke="#666666" stroke-width="5.9" d="M474.47,-155.58C477.96,-154.3 481.1,-153.15 483.94,-152.11"/>
<polygon fill="#666666" stroke="#666666" stroke-width="5.9" points="485.48,-157.05 493.14,-148.8 481.98,-147.33 485.48,-157.05"/>
<text xml:space="preserve" text-anchor="middle" x="490.63" y="-140.74" font-family="Times New Roman,serif" font-size="12.00"> 0.99 </text>
</g>
<!-- 9&#45;&gt;9 -->
<g id="edge15" class="edge">
<title>9&#45;&gt;9</title>
<path fill="none" stroke="#666666" stroke-width="1.9" d="M555.22,-144.11C565.39,-144.25 573.69,-142 573.69,-137.36 573.69,-134.97 571.48,-133.21 567.95,-132.09"/>
<polygon fill="#666666" stroke="#666666" stroke-width="1.9" points="568.41,-128.62 558.08,-130.95 567.61,-135.58 568.41,-128.62"/>
<text xml:space="preserve" text-anchor="middle" x="587.19" y="-133.09" font-family="Times New Roman,serif" font-size="12.00"> 0.18 </text>
</g>
<!-- 10 -->
<g id="node10" class="node">
<title>10</title>
<g id="a_node10"><a xlink:title="stickInDisp">
<ellipse fill="#00cccc" stroke="black" cx="607.26" cy="-110.41" rx="28.8" ry="28.8"/>
<text xml:space="preserve" text-anchor="middle" x="607.26" y="-104.59" font-family="Times New Roman,serif" font-size="16.00">10</text>
</a>
</g>
</g>
<!-- 9&#45;&gt;10 -->
<g id="edge16" class="edge">
<title>9&#45;&gt;10</title>
<path fill="none" stroke="#666666" stroke-width="5.1" d="M554.38,-127.92C558.17,-126.61 561.54,-125.46 564.57,-124.42"/>
<polygon fill="#666666" stroke="#666666" stroke-width="5.1" points="565.77,-128.73 573.81,-121.29 562.9,-120.28 565.77,-128.73"/>
<text xml:space="preserve" text-anchor="middle" x="564.5" y="-113.05" font-family="Times New Roman,serif" font-size="12.00"> 0.82 </text>
</g>
<!-- 11 -->
<g id="node11" class="node">
<title>11</title>
<g id="a_node11"><a xlink:title="rightToPellet">
<ellipse fill="#808000" stroke="black" cx="688.49" cy="-83.24" rx="28.8" ry="28.8"/>
<text xml:space="preserve" text-anchor="middle" x="688.49" y="-77.41" font-family="Times New Roman,serif" font-size="16.00" fill="white">11</text>
</a>
</g>
</g>
<!-- 10&#45;&gt;11 -->
<g id="edge17" class="edge">
<title>10&#45;&gt;11</title>
<path fill="none" stroke="#666666" stroke-width="5.9" d="M634.63,-101.11C638.78,-99.7 642.44,-98.46 645.71,-97.35"/>
<polygon fill="#666666" stroke="#666666" stroke-width="5.9" points="647.02,-102.36 654.85,-94.27 643.73,-92.57 647.02,-102.36"/>
<text xml:space="preserve" text-anchor="middle" x="645.63" y="-85.98" font-family="Times New Roman,serif" font-size="12.00"> 0.99 </text>
</g>
<!-- 12 -->
<g id="node12" class="node">
<title>12</title>
<g id="a_node12"><a xlink:title="snapPellet">
<ellipse fill="#ff00ff" stroke="black" cx="769.97" cy="-56.04" rx="28.8" ry="28.8"/>
<text xml:space="preserve" text-anchor="middle" x="769.97" y="-50.22" font-family="Times New Roman,serif" font-size="16.00">12</text>
</a>
</g>
</g>
<!-- 11&#45;&gt;12 -->
<g id="edge18" class="edge">
<title>11&#45;&gt;12</title>
<path fill="none" stroke="#666666" stroke-width="6" d="M715.96,-73.96C720.13,-72.55 723.8,-71.32 727.08,-70.21"/>
<polygon fill="#666666" stroke="#666666" stroke-width="6" points="728.43,-75.29 736.25,-67.14 725.09,-65.34 728.43,-75.29"/>
<text xml:space="preserve" text-anchor="middle" x="727" y="-58.84" font-family="Times New Roman,serif" font-size="12.00"> 1.00 </text>
</g>
<!-- 13 -->
<g id="node13" class="node">
<title>13</title>
<g id="a_node13"><a xlink:title="eat">
<ellipse fill="#ffa500" stroke="black" cx="851.37" cy="-28.8" rx="28.8" ry="28.8"/>
<text xml:space="preserve" text-anchor="middle" x="851.37" y="-22.98" font-family="Times New Roman,serif" font-size="16.00">13</text>
</a>
</g>
</g>
<!-- 12&#45;&gt;13 -->
<g id="edge19" class="edge">
<title>12&#45;&gt;13</title>
<path fill="none" stroke="#666666" stroke-width="6" d="M797.42,-46.78C801.59,-45.37 805.25,-44.13 808.53,-43.03"/>
<polygon fill="#666666" stroke="#666666" stroke-width="6" points="809.88,-48.12 817.69,-39.95 806.54,-38.16 809.88,-48.12"/>
<text xml:space="preserve" text-anchor="middle" x="808.46" y="-31.66" font-family="Times New Roman,serif" font-size="12.00"> 0.99 </text>
</g>
<!-- 13&#45;&gt;13 -->
<g id="edge20" class="edge">
<title>13&#45;&gt;13</title>
<path fill="none" stroke="#666666" stroke-width="6" d="M879.7,-35.54C889.88,-35.69 898.17,-33.44 898.17,-28.8 898.17,-27.2 897.19,-25.89 895.49,-24.86"/>
<polygon fill="#666666" stroke="#666666" stroke-width="6" points="896.82,-19.77 886.06,-23.19 894.98,-30.1 896.82,-19.77"/>
<text xml:space="preserve" text-anchor="middle" x="911.67" y="-24.53" font-family="Times New Roman,serif" font-size="12.00"> 1.00 </text>
</g>
<!-- 14&#45;&gt;7 -->
<g id="edge21" class="edge">
<title>14&#45;&gt;7</title>
<path fill="none" stroke="#666666" stroke-width="5.4" d="M245.4,-265.94C267.64,-249.98 284.19,-240.38 341.82,-209.13"/>
<polygon fill="#666666" stroke="#666666" stroke-width="5.4" points="343.95,-213.35 350.5,-204.43 339.45,-205.04 343.95,-213.35"/>
<text xml:space="preserve" text-anchor="middle" x="313.2" y="-235.06" font-family="Times New Roman,serif" font-size="12.00"> 0.88 </text>
</g>
<!-- 15&#45;&gt;5 -->
<g id="edge22" class="edge">
<title>15&#45;&gt;5</title>
<path fill="none" stroke="#666666" stroke-width="3.6" d="M205.81,-231.76C218.19,-261.42 227.53,-271.84 260.96,-290.75"/>
<polygon fill="#666666" stroke="#666666" stroke-width="3.6" points="259.19,-293.78 269.64,-295.53 262.57,-287.64 259.19,-293.78"/>
<text xml:space="preserve" text-anchor="middle" x="246.95" y="-275.6" font-family="Times New Roman,serif" font-size="12.00"> 0.51 </text>
</g>
<!-- 15&#45;&gt;14 -->
<g id="edge23" class="edge">
<title>15&#45;&gt;14</title>
<path fill="none" stroke="#666666" stroke-width="2.8" d="M194.29,-233.82C194.58,-239.53 195.41,-244.14 197.11,-248.61"/>
<polygon fill="#666666" stroke="#666666" stroke-width="2.8" points="193.87,-249.98 201.8,-257.01 199.98,-246.57 193.87,-249.98"/>
<text xml:space="preserve" text-anchor="middle" x="183.46" y="-236.79" font-family="Times New Roman,serif" font-size="12.00"> 0.35 </text>
</g>
</g>
</svg>
